<svg width="24" height="23" viewBox="0 0 24 23" fill="none" xmlns="http://www.w3.org/2000/svg">
<path d="M21.2951 9.97365H13.8591V2.53759C13.8591 1.5114 13.0281 0.678528 12 0.678528C10.972 0.678528 10.141 1.5114 10.141 2.53759V9.97365H2.7049C1.67684 9.97365 0.84584 10.8065 0.84584 11.8327C0.84584 12.8589 1.67684 13.6918 2.7049 13.6918H10.141V21.1278C10.141 22.154 10.972 22.9869 12 22.9869C13.0281 22.9869 13.8591 22.154 13.8591 21.1278V13.6918H21.2951C22.3232 13.6918 23.1542 12.8589 23.1542 11.8327C23.1542 10.8065 22.3232 9.97365 21.2951 9.97365Z" fill="white"/>
</svg>
