<svg width="30" height="30" viewBox="0 0 30 30" fill="none" xmlns="http://www.w3.org/2000/svg">
<path d="M15 0C6.7285 0 0 6.7285 0 15C0 23.2715 6.7285 30 15 30C23.2715 30 30 23.2703 30 15C30 6.72967 23.2715 0 15 0ZM15 27.6762C8.01123 27.6762 2.32377 21.9899 2.32377 15C2.32377 8.01006 8.01123 2.32377 15 2.32377C21.9888 2.32377 27.6762 8.01006 27.6762 15C27.6762 21.9899 21.9899 27.6762 15 27.6762Z" fill="white"/>
<path d="M20.8095 13.7336H16.162V9.08602C16.162 8.44465 15.6426 7.9241 15.0001 7.9241C14.3575 7.9241 13.8381 8.44465 13.8381 9.08602V13.7336H9.1906C8.54806 13.7336 8.02869 14.2541 8.02869 14.8955C8.02869 15.5368 8.54806 16.0574 9.1906 16.0574H13.8381V20.7049C13.8381 21.3463 14.3575 21.8668 15.0001 21.8668C15.6426 21.8668 16.162 21.3463 16.162 20.7049V16.0574H20.8095C21.452 16.0574 21.9714 15.5368 21.9714 14.8955C21.9714 14.2541 21.452 13.7336 20.8095 13.7336Z" fill="white"/>
</svg>
