<svg width="16" height="16" viewBox="0 0 16 16" fill="none" xmlns="http://www.w3.org/2000/svg">
<path d="M12.8561 1.07105L8.14214 5.78506L3.42813 1.07105C2.77759 0.420513 1.7228 0.419324 1.07107 1.07105C0.41934 1.72278 0.420527 2.77757 1.07107 3.42811L5.78508 8.14212L1.07107 12.8561C0.419342 13.5079 0.420531 14.5627 1.07107 15.2132C1.72161 15.8637 2.7764 15.8649 3.42813 15.2132L8.14214 10.4992L12.8561 15.2132C13.5067 15.8637 14.5615 15.8649 15.2132 15.2132C15.8649 14.5615 15.8637 13.5067 15.2132 12.8561L10.4992 8.14212L15.2132 3.42812C15.8649 2.77639 15.8637 1.7216 15.2132 1.07106C14.5627 0.420516 13.5079 0.419326 12.8561 1.07105Z" fill="#AEC3B0"/>
</svg>
