<svg width="32" height="32" viewBox="0 0 32 32" fill="none" xmlns="http://www.w3.org/2000/svg">
<path d="M17.7163 27.9431C17.8806 27.9431 18.0413 27.8762 18.1582 27.76C18.2744 27.6438 18.3413 27.4824 18.3413 27.3181C18.3413 27.1531 18.2744 26.9919 18.1582 26.8757C18.0417 26.7593 17.8806 26.6931 17.7163 26.6931C17.552 26.6931 17.3906 26.7593 17.2737 26.8757C17.1575 26.9919 17.0913 27.1531 17.0913 27.3181C17.0913 27.4824 17.1575 27.6438 17.2737 27.76C17.3906 27.8762 17.552 27.9431 17.7163 27.9431Z" fill="white"/>
<path d="M28.3219 14.2319C29.1554 13.3984 29.1644 12.0334 28.3424 11.189C27.9349 10.7703 27.3888 10.5376 26.8045 10.5337C26.7997 10.5337 26.7945 10.5337 26.7896 10.5337C26.211 10.5337 25.6676 10.7588 25.2581 11.1682L23.0562 13.3704C23.0226 13.4038 22.9942 13.4404 22.9698 13.479L22.0394 13.6636L21.451 12.2927C21.0782 11.4236 20.4923 10.6631 19.7591 10.0781C19.8924 10.0889 20.0267 10.0957 20.1624 10.0957C22.9459 10.0957 25.2103 7.8313 25.2103 5.04785C25.2103 2.2644 22.9459 0 20.1624 0C17.379 0 15.1146 2.2644 15.1146 5.04785C15.1146 6.57544 15.7975 7.94556 16.8731 8.87207C16.2171 8.79395 15.5477 8.82886 14.8946 8.98169C13.5604 9.29443 12.3814 10.0769 11.5755 11.1853L6.05087 18.7817C4.47152 20.9531 4.59042 23.8923 6.33993 25.929C6.81625 26.4836 7.38656 26.9353 8.01693 27.2688C8.01571 27.2852 8.01449 27.3013 8.01449 27.3179V27.375H5.37509C4.11703 27.375 3.07968 28.3984 3.06283 29.6565C3.05453 30.28 3.2911 30.8679 3.72885 31.3115C4.16684 31.7556 4.75155 32 5.37509 32H18.9554C21.6737 32 23.8936 29.7886 23.9039 27.0701C23.909 25.7449 23.3966 24.4978 22.4613 23.5588C21.5257 22.6199 20.2806 22.1028 18.9554 22.1028H16.6798L18.4437 19.6772C19.4464 20.5132 20.808 20.885 22.1644 20.5872L26.0487 19.7354C26.3353 19.6726 26.5396 19.4185 26.5396 19.125C26.5396 18.2207 26.3709 17.3271 26.054 16.4902C26.0767 16.4731 26.099 16.4546 26.1197 16.4341L28.3219 14.2319ZM20.1624 8.8457C19.721 8.8457 19.2975 8.76929 18.9029 8.63013L19.4908 6.92212C19.5728 6.68457 19.5045 6.42139 19.3175 6.25366L19.0201 5.98682C18.8834 5.86401 18.8519 5.66016 18.9449 5.50195C18.9979 5.41235 19.0824 5.34863 19.1832 5.323C19.2843 5.29736 19.3888 5.31274 19.4781 5.36621L19.8412 5.58374C19.9915 5.67383 20.1727 5.69678 20.3407 5.64673L23.9305 4.57959C23.9496 4.73315 23.9605 4.88916 23.9605 5.04785C23.9603 7.14209 22.2567 8.8457 20.1624 8.8457ZM16.3646 5.04785C16.3646 2.95386 18.0684 1.25 20.1624 1.25C21.6593 1.25 22.9559 2.12036 23.5743 3.38135L20.2479 4.37036L20.1209 4.29419C19.7437 4.06787 19.3014 4.00317 18.8748 4.11182C18.4483 4.22021 18.0907 4.48901 17.8675 4.86841C17.4767 5.53296 17.606 6.3877 18.1742 6.90698L17.7935 8.01294C16.9234 7.31641 16.3646 6.24658 16.3646 5.04785ZM4.61874 30.4336C4.41757 30.2297 4.30868 29.9597 4.31259 29.6731C4.3204 29.0952 4.79696 28.625 5.37509 28.625H8.01449V30.75H5.37509C5.08871 30.75 4.81991 30.6377 4.61874 30.4336ZM21.8966 19.3662C20.3592 19.7034 18.8128 18.8354 18.2999 17.3469L16.8182 13.0464C16.7059 12.72 16.3502 12.5464 16.0238 12.6592C15.6974 12.7715 15.524 13.1272 15.6363 13.4536L17.118 17.7542C17.2381 18.1025 17.3993 18.4258 17.5931 18.7219L15.1341 22.1028H12.8639C12.5186 22.1028 12.2389 22.3826 12.2389 22.7278C12.2389 23.0728 12.5186 23.3528 12.8639 23.3528H15.4505H15.452H15.4532H18.9554C19.9461 23.3528 20.8766 23.7393 21.5758 24.4409C22.2747 25.1428 22.6578 26.075 22.6541 27.0654C22.6463 29.0972 20.9872 30.75 18.9554 30.75H9.26449V27.9429H15.6554C16.0003 27.9429 16.2804 27.6631 16.2804 27.3179C16.2804 26.9727 16.0003 26.6929 15.6554 26.6929L10.7132 26.6877C9.39535 26.6877 8.14682 26.1143 7.28818 25.1145C5.91781 23.5195 5.8248 21.2175 7.06161 19.5168L12.5863 11.9204C13.8785 10.1436 16.3211 9.57153 18.2679 10.5896C19.1759 11.0645 19.8983 11.8442 20.3023 12.7856L21.0904 14.6216C21.2066 14.8926 21.4967 15.0457 21.7862 14.988L23.401 14.6677L23.4215 14.6877C24.4896 15.7312 25.1478 17.1448 25.2691 18.6267L21.8966 19.3662ZM24.3477 13.8464L26.1422 12.0522C26.3153 11.8789 26.545 11.7837 26.7899 11.7837H26.7962C27.0433 11.7854 27.2743 11.8838 27.4466 12.061C27.7943 12.4182 27.7906 12.9956 27.4381 13.3481L25.482 15.304C25.1673 14.7754 24.7872 14.2847 24.3477 13.8464Z" fill="white"/>
</svg>
