<svg width="48" height="48" viewBox="0 0 48 48" fill="none" xmlns="http://www.w3.org/2000/svg">
<path d="M26.5745 41.9147C26.8209 41.9147 27.0619 41.8143 27.2373 41.64C27.4116 41.4657 27.512 41.2236 27.512 40.9772C27.512 40.7296 27.4116 40.4879 27.2373 40.3136C27.0626 40.1389 26.8209 40.0397 26.5745 40.0397C26.328 40.0397 26.0859 40.1389 25.9105 40.3136C25.7362 40.4879 25.637 40.7296 25.637 40.9772C25.637 41.2236 25.7362 41.4657 25.9105 41.64C26.0859 41.8143 26.328 41.9147 26.5745 41.9147Z" fill="#124559"/>
<path d="M42.4827 21.3479C43.7329 20.0977 43.7465 18.0502 42.5134 16.7834C41.9022 16.1554 41.083 15.8064 40.2067 15.8005C40.1994 15.8005 40.1917 15.8005 40.1843 15.8005C39.3164 15.8005 38.5012 16.1382 37.8871 16.7523L34.5842 20.0555C34.5337 20.1057 34.4912 20.1606 34.4546 20.2185L33.059 20.4954L32.1764 18.4391C31.6172 17.1354 30.7383 15.9946 29.6386 15.1172C29.8385 15.1333 30.0399 15.1436 30.2435 15.1436C34.4187 15.1436 37.8153 11.7469 37.8153 7.57178C37.8153 3.39661 34.4187 0 30.2435 0C26.0684 0 22.6718 3.39661 22.6718 7.57178C22.6718 9.86316 23.6961 11.9183 25.3096 13.3081C24.3256 13.1909 23.3214 13.2433 22.3418 13.4725C20.3405 13.9417 18.572 15.1154 17.3632 16.778L9.07618 28.1726C6.70717 31.4297 6.88551 35.8385 9.50978 38.8934C10.2243 39.7255 11.0797 40.403 12.0253 40.9032C12.0235 40.9277 12.0216 40.9519 12.0216 40.9768V41.0625H8.06251C6.17543 41.0625 4.6194 42.5977 4.59413 44.4847C4.58168 45.42 4.93654 46.3019 5.59315 46.9673C6.25013 47.6334 7.12721 48 8.06251 48H28.433C32.5104 48 35.8403 44.6829 35.8557 40.6051C35.8634 38.6173 35.0947 36.7467 33.6918 35.3383C32.2885 33.9298 30.4208 33.1542 28.433 33.1542H25.0195L27.6654 29.5159C29.1694 30.7698 31.2118 31.3275 33.2465 30.8807L39.0729 29.603C39.5028 29.5089 39.8093 29.1277 39.8093 28.6875C39.8093 27.3311 39.5563 25.9907 39.081 24.7354C39.115 24.7097 39.1483 24.6819 39.1795 24.6511L42.4827 21.3479ZM30.2435 13.2686C29.5814 13.2686 28.9461 13.1539 28.3543 12.9452L29.2361 10.3832C29.3591 10.0269 29.2566 9.63208 28.9761 9.38049L28.53 8.98022C28.325 8.79602 28.2777 8.49023 28.4173 8.25293C28.4967 8.11853 28.6234 8.02295 28.7747 7.9845C28.9263 7.94604 29.083 7.96912 29.2171 8.04932L29.7616 8.37561C29.9872 8.51074 30.2589 8.54517 30.5109 8.47009L35.8956 6.86938C35.9242 7.09973 35.9407 7.33374 35.9407 7.57178C35.9403 10.7131 33.3849 13.2686 30.2435 13.2686ZM24.5468 7.57178C24.5468 4.43079 27.1026 1.875 30.2435 1.875C32.4888 1.875 34.4337 3.18054 35.3613 5.07202L30.3717 6.55554L30.1813 6.44128C29.6155 6.10181 28.9519 6.00476 28.3121 6.16772C27.6724 6.33032 27.1359 6.73352 26.8012 7.30261C26.2149 8.29944 26.409 9.58154 27.2611 10.3605L26.6902 12.0194C25.385 10.9746 24.5468 9.36987 24.5468 7.57178ZM6.92799 45.6504C6.62623 45.3446 6.4629 44.9396 6.46876 44.5096C6.48048 43.6428 7.19532 42.9375 8.06251 42.9375H12.0216V46.125H8.06251C7.63295 46.125 7.22975 45.9565 6.92799 45.6504ZM32.8447 29.0493C30.5387 29.5551 28.2191 28.2532 27.4497 26.0204L25.2272 19.5696C25.0587 19.08 24.5252 18.8196 24.0355 18.9888C23.5459 19.1572 23.2859 19.6908 23.4544 20.1804L25.6769 26.6312C25.8571 27.1538 26.0988 27.6387 26.3895 28.0829L22.7011 33.1542H19.2957C18.7778 33.1542 18.3582 33.5739 18.3582 34.0917C18.3582 34.6091 18.7778 35.0292 19.2957 35.0292H23.1757H23.1779H23.1797H28.433C29.9191 35.0292 31.3147 35.6089 32.3635 36.6614C33.412 37.7142 33.9866 39.1124 33.9811 40.5981C33.9694 43.6458 31.4806 46.125 28.433 46.125H13.8966V41.9143H23.4829C24.0004 41.9143 24.4204 41.4946 24.4204 40.9768C24.4204 40.459 24.0004 40.0393 23.4829 40.0393L16.0697 40.0316C14.0929 40.0316 12.2201 39.1714 10.9321 37.6718C8.8766 35.2793 8.73707 31.8263 10.5923 29.2753L18.8793 17.8806C20.8176 15.2153 24.4816 14.3573 27.4017 15.8844C28.7637 16.5967 29.8473 17.7664 30.4534 19.1785L31.6355 21.9324C31.8098 22.3389 32.2449 22.5685 32.6792 22.4821L35.1013 22.0016L35.1321 22.0316C36.7343 23.5968 37.7216 25.7172 37.9036 27.9401L32.8447 29.0493ZM36.5215 20.7697L39.2132 18.0784C39.4728 17.8184 39.8174 17.6755 40.1847 17.6755H40.1942C40.5648 17.6781 40.9113 17.8257 41.1698 18.0916C41.6913 18.6273 41.6858 19.4934 41.157 20.0222L38.2229 22.9559C37.7509 22.1631 37.1807 21.427 36.5215 20.7697Z" fill="#124559"/>
</svg>
