<svg width="32" height="32" viewBox="0 0 32 32" fill="none" xmlns="http://www.w3.org/2000/svg">
<path d="M27.5603 4.92363C24.5401 1.77112 20.3612 -0.00800599 15.9954 2.70855e-05C7.17254 -0.0110853 0.0111251 7.13226 1.26662e-05 15.9552C-0.0054766 20.3178 1.77345 24.4929 4.92362 27.511C4.93279 27.5201 4.9362 27.5338 4.94531 27.5418C5.03782 27.6309 5.13837 27.7064 5.23209 27.792C5.48914 28.0205 5.7462 28.257 6.01698 28.4775C6.16205 28.5918 6.31287 28.706 6.46141 28.8111C6.71733 29.0019 6.97326 29.1927 7.24056 29.3687C7.42224 29.4829 7.60961 29.5971 7.79577 29.7114C8.04252 29.86 8.2882 30.0096 8.54298 30.1455C8.75894 30.2598 8.97938 30.358 9.19875 30.462C9.43867 30.5762 9.67518 30.6904 9.92079 30.7933C10.1664 30.8961 10.4132 30.9761 10.6622 31.0652C10.9113 31.1543 11.1261 31.2366 11.3649 31.3097C11.6345 31.3908 11.911 31.4536 12.1852 31.521C12.4137 31.577 12.6353 31.641 12.8707 31.6867C13.186 31.7495 13.5059 31.7895 13.8258 31.833C14.0235 31.8604 14.2165 31.8992 14.4164 31.9186C14.9397 31.97 15.4675 31.9986 15.9999 31.9986C16.5323 31.9986 17.0601 31.97 17.5833 31.9186C17.7833 31.8992 17.9764 31.8604 18.174 31.833C18.4939 31.7895 18.8137 31.7495 19.1291 31.6867C19.3576 31.641 19.5861 31.5724 19.8146 31.521C20.0888 31.4536 20.3653 31.3907 20.6349 31.3097C20.8737 31.2366 21.1044 31.1475 21.3375 31.0652C21.5706 30.9829 21.8356 30.8938 22.079 30.7933C22.3223 30.6927 22.5611 30.575 22.801 30.462C23.0204 30.358 23.2409 30.2597 23.4568 30.1455C23.7116 30.0096 23.9572 29.8599 24.204 29.7114C24.3902 29.5971 24.5776 29.4932 24.7592 29.3687C25.0266 29.1927 25.2825 29.002 25.5384 28.8111C25.6869 28.6968 25.8377 28.594 25.9828 28.4775C26.2536 28.2604 26.5106 28.0297 26.7677 27.792C26.8613 27.7064 26.9619 27.631 27.0545 27.5418C27.0636 27.5339 27.067 27.5201 27.0762 27.511C33.4473 21.4073 33.664 11.2946 27.5603 4.92363ZM24.9925 26.3148C24.7846 26.4976 24.5698 26.6712 24.3527 26.8392C24.2248 26.9375 24.0968 27.0345 23.9654 27.1282C23.7586 27.2779 23.5484 27.4196 23.3347 27.5555C23.1794 27.6549 23.0206 27.7509 22.8606 27.8446C22.6595 27.9589 22.455 28.0731 22.2482 28.1873C22.0654 28.281 21.8792 28.369 21.6919 28.4558C21.5045 28.5427 21.2977 28.6352 21.0955 28.7163C20.8932 28.7975 20.6785 28.874 20.4671 28.9448C20.274 29.0111 20.081 29.0796 19.8855 29.1379C19.6571 29.2064 19.4183 29.2624 19.1818 29.3195C18.9967 29.3629 18.8139 29.4121 18.6266 29.4487C18.3558 29.5012 18.0793 29.5378 17.8017 29.5755C17.6441 29.596 17.4875 29.6246 17.3287 29.6406C16.8899 29.6828 16.4455 29.708 15.9965 29.708C15.5476 29.708 15.1031 29.6829 14.6644 29.6406C14.5056 29.6246 14.3491 29.596 14.1914 29.5755C13.9138 29.5378 13.6373 29.5012 13.3665 29.4487C13.1791 29.4121 12.9963 29.363 12.8113 29.3195C12.5748 29.2624 12.3394 29.2053 12.1075 29.1379C11.9122 29.0796 11.7191 29.0111 11.526 28.9448C11.3147 28.8717 11.1033 28.7974 10.8976 28.7163C10.692 28.6352 10.4978 28.5461 10.3012 28.4558C10.1047 28.3656 9.92762 28.2811 9.74487 28.1873C9.53808 28.08 9.33357 27.9668 9.13248 27.8446C8.97255 27.7509 8.8137 27.6549 8.65833 27.5555C8.44471 27.4196 8.23445 27.2779 8.02766 27.1282C7.89625 27.0346 7.76833 26.9375 7.64033 26.8392C7.42324 26.6712 7.20849 26.4964 7.00057 26.3148C6.95029 26.2771 6.90457 26.2291 6.8555 26.1856C6.90658 22.2992 9.40333 18.8674 13.0855 17.6227C14.9266 18.4985 17.0642 18.4985 18.9053 17.6227C22.5874 18.8674 25.0841 22.2991 25.1353 26.1856C25.0873 26.2291 25.0416 26.2725 24.9925 26.3148ZM12.0115 9.16027C13.2485 6.96028 16.0347 6.17967 18.2347 7.41669C20.4347 8.65372 21.2153 11.4399 19.9783 13.6399C19.5678 14.3699 18.9647 14.973 18.2347 15.3835C18.229 15.3835 18.2221 15.3835 18.2153 15.3903C17.9123 15.5589 17.5921 15.6946 17.2601 15.7948C17.2008 15.8119 17.1459 15.8348 17.0831 15.8496C16.9688 15.8793 16.8488 15.8999 16.7312 15.9204C16.5096 15.9592 16.2854 15.9817 16.0605 15.9878H15.9303C15.7054 15.9817 15.4812 15.9592 15.2596 15.9204C15.1454 15.8999 15.0243 15.8793 14.9078 15.8496C14.8472 15.8348 14.7935 15.8119 14.7307 15.7948C14.3988 15.6946 14.0786 15.559 13.7756 15.3903L13.755 15.3835C11.5551 14.1465 10.7744 11.3603 12.0115 9.16027ZM27.162 23.9202C26.4289 20.5006 24.1771 17.6015 21.0452 16.0451C23.6054 13.2562 23.42 8.91988 20.6311 6.35968C17.8422 3.79947 13.5059 3.9849 10.9457 6.77378C8.53883 9.39564 8.53883 13.4233 10.9457 16.0451C7.81378 17.6016 5.56198 20.5006 4.82883 23.9202C0.447857 17.7492 1.8989 9.19522 8.06984 4.81425C14.2408 0.433277 22.7948 1.88432 27.1758 8.05526C28.8226 10.375 29.7066 13.1498 29.7052 15.9947C29.7052 18.8372 28.816 21.6084 27.162 23.9202Z" fill="#124559"/>
</svg>
