<svg width="32" height="32" viewBox="0 0 32 32" fill="none" xmlns="http://www.w3.org/2000/svg">
<path d="M6.83826 5.56815H0.941168C0.421311 5.56815 0 5.14656 0 4.62699C0 4.10741 0.421311 3.68582 0.941168 3.68582H6.83826C7.35812 3.68582 7.77943 4.10741 7.77943 4.62699C7.77943 5.14656 7.35812 5.56815 6.83826 5.56815Z" fill="white"/>
<path d="M10.2081 8.93772C7.83095 8.93772 5.89709 7.00387 5.89709 4.62691C5.89709 2.24946 7.83095 0.315609 10.2081 0.315609C12.5853 0.315609 14.5191 2.24946 14.5191 4.62691C14.5191 7.00394 12.5853 8.93772 10.2081 8.93772ZM10.2081 2.19801C8.86891 2.19801 7.77943 3.2877 7.77943 4.62691C7.77943 5.96612 8.86891 7.05532 10.2081 7.05532C11.5473 7.05532 12.6368 5.96612 12.6368 4.62691C12.6368 3.2877 11.5473 2.19801 10.2081 2.19801Z" fill="white"/>
<path d="M31.0589 5.56815H16.9922C16.4723 5.56815 16.051 5.14656 16.051 4.62699C16.051 4.10741 16.4723 3.68582 16.9922 3.68582H31.0588C31.5787 3.68582 32 4.10741 32 4.62699C32 5.14656 31.5787 5.56815 31.0589 5.56815Z" fill="white"/>
<path d="M22.8448 20.3108C20.4676 20.3108 18.5338 18.377 18.5338 16C18.5338 13.623 20.4677 11.6892 22.8448 11.6892C25.222 11.6892 27.1559 13.623 27.1559 16C27.1559 18.377 25.2221 20.3108 22.8448 20.3108ZM22.8448 13.5716C21.5056 13.5716 20.4162 14.6608 20.4162 16C20.4162 17.3392 21.5056 18.4284 22.8448 18.4284C24.184 18.4284 25.2735 17.3392 25.2735 16C25.2735 14.6608 24.184 13.5716 22.8448 13.5716Z" fill="white"/>
<path d="M16.061 16.9412H0.941168C0.421311 16.9412 0 16.5196 0 16C0 15.4804 0.421311 15.0588 0.941168 15.0588H16.061C16.5809 15.0588 17.0022 15.4804 17.0022 16C17.0022 16.5196 16.5809 16.9412 16.061 16.9412Z" fill="white"/>
<path d="M31.0588 16.9412H26.2147C25.6949 16.9412 25.2736 16.5196 25.2736 16C25.2736 15.4804 25.6949 15.0588 26.2147 15.0588H31.0588C31.5787 15.0588 32 15.4804 32 16C32 16.5196 31.5787 16.9412 31.0588 16.9412Z" fill="white"/>
<path d="M9.15514 31.6843C6.77797 31.6843 4.84412 29.7504 4.84412 27.373C4.84412 24.996 6.77797 23.0622 9.15514 23.0622C11.5323 23.0622 13.4662 24.996 13.4662 27.373C13.4662 29.7504 11.5323 31.6843 9.15514 31.6843ZM9.15514 24.9446C7.81593 24.9446 6.72645 26.0338 6.72645 27.373C6.72645 28.7122 7.81593 29.8019 9.15514 29.8019C10.4943 29.8019 11.5838 28.7122 11.5838 27.373C11.5838 26.0338 10.4943 24.9446 9.15514 24.9446Z" fill="white"/>
<path d="M31.0589 28.3143H15.939C15.4191 28.3143 14.9978 27.8927 14.9978 27.3731C14.9978 26.8535 15.4191 26.4319 15.939 26.4319H31.0589C31.5787 26.4319 32 26.8535 32 27.3731C32 27.8927 31.5787 28.3143 31.0589 28.3143Z" fill="white"/>
<path d="M5.7853 28.3143H0.941168C0.421311 28.3143 0 27.8927 0 27.373C0 26.8534 0.421311 26.4319 0.941168 26.4319H5.7853C6.30515 26.4319 6.72647 26.8534 6.72647 27.373C6.72647 27.8927 6.30515 28.3143 5.7853 28.3143Z" fill="white"/>
</svg>
